:SAMPLES-PER-SECOND 30
:FULLY-SPECIFIED
:DEGREES
560
root  5.18485 40.1041 -3.23327 -25.166 -79.673 32.7841
RightUpLeg  -20.2311 -14.4759 -6.29411
RightLeg  23.2836 -7.59523 -3.79152
RightFoot  -9.26147 -0.0920405 1.61005
RightToes  -4.65663e-010 0 -3.6325e-017
Spine  -0.257312 -0.272492 17.846
Spine1  9.85649 0.516055 -5.38101
HEad  32.7651 -10.0685 -7.97098
LeftShoulder1  7.3965 -9.95364 -47.9509
LeftArm  -13.1033 32.4583 -20.7366
LeftForeArm  76.1102 -76.2005 -36.6949
LeftHand  -0.244104 0.0205437 5.32207
RightShoulder  5.80229 9.18082 39.6247
RightArm  -2.14892 -15.7304 25.4488
RightForeArm  -11.326 25.5791 6.05121
RightHand  -0.615063 -0.661585 -15.0756
LeftUpLeg  -9.97916 5.30336 3.24981
LeftLeg  -6.74791 -15.7042 -7.11036
LeftFoot  0.730882 4.50048 -40.9005
LeftToes  4.18335e-011 1.59304e-011 3.38507e-012
561
root  5.24353 40.1432 -3.29681 -25.5449 -79.9645 33.0651
RightUpLeg  -20.0293 -14.1313 -6.05827
RightLeg  22.7416 -7.698 -3.75185
RightFoot  -8.98242 -0.0878158 1.30621
RightToes  -4.65663e-010 0 -3.6325e-017
Spine  -0.0374121 -0.261998 17.6046
Spine1  10.0293 0.675705 -5.70042
HEad  32.6482 -9.54391 -7.77461
LeftShoulder1  7.34863 -9.94123 -47.6809
LeftArm  -13.0104 32.6032 -20.7745
LeftForeArm  75.4936 -75.9625 -35.9042
LeftHand  -0.244104 0.0205437 5.32207
RightShoulder  5.85293 9.18823 39.9781
RightArm  -2.36197 -15.7793 25.2646
RightForeArm  -10.9836 25.4495 6.0048
RightHand  -0.619838 -0.564711 -14.893
LeftUpLeg  -10.0878 5.20546 3.23071
LeftLeg  -6.50278 -15.4028 -6.96676
LeftFoot  0.952665 4.41372 -39.5081
LeftToes  4.18335e-011 1.59304e-011 3.38507e-012
562
root  5.30574 40.1995 -3.39247 -24.9153 -80.1572 32.3376
RightUpLeg  -19.6318 -14.1539 -5.66284
RightLeg  21.8184 -7.61458 -3.55165
RightFoot  -8.63124 -0.0820088 0.992986
RightToes  -4.65663e-010 0 -3.6325e-017
Spine  0.24823 -0.296356 17.4319
Spine1  10.0147 0.789297 -6.02618
HEad  32.8946 -8.97009 -7.54312
LeftShoulder1  7.27773 -9.90103 -47.3573
LeftArm  -12.8912 32.9207 -20.8086
LeftForeArm  75.6278 -75.9127 -35.6808
LeftHand  -0.244104 0.0205437 5.32207
RightShoulder  5.8731 9.17596 40.1709
RightArm  -2.37208 -15.9202 25.2388
RightForeArm  -10.96 25.3007 5.96923
RightHand  -0.590296 -0.746145 -14.7249
LeftUpLeg  -10.2943 5.2122 3.28099
LeftLeg  -6.11429 -15.1395 -6.8678
LeftFoot  1.24848 4.27646 -37.5424
LeftToes  4.18335e-011 1.59304e-011 3.38507e-012
563
root  5.37745 40.2905 -3.52587 -23.5444 -79.915 30.9103
RightUpLeg  -18.9531 -14.7381 -5.3995
RightLeg  20.376 -7.47361 -3.11704
RightFoot  -8.12381 -0.0748939 0.705671
RightToes  -4.65663e-010 0 -3.6325e-017
Spine  0.496201 -0.433647 16.8145
Spine1  9.9199 0.685812 -5.95501
HEad  33.4175 -8.42672 -7.27006
LeftShoulder1  7.26177 -9.87381 -47.3491
LeftArm  -12.9557 33.2191 -20.6512
LeftForeArm  76.1216 -75.9682 -35.7723
LeftHand  -0.244104 0.0205437 5.32207
RightShoulder  5.85719 9.13396 40.1974
RightArm  -2.1997 -16.0601 25.3124
RightForeArm  -11.2087 25.1281 5.94124
RightHand  -0.577622 -0.876171 -14.8098
LeftUpLeg  -10.7651 4.97445 3.03823
LeftLeg  -5.47692 -15.2771 -6.61278
LeftFoot  1.94502 4.08572 -34.2318
LeftToes  4.18335e-011 1.59304e-011 3.38507e-012
564
root  5.45697 40.4013 -3.67581 -22.463 -79.3307 29.7438
RightUpLeg  -18.0387 -15.4797 -5.52324
RightLeg  18.7122 -7.53178 -2.42484
RightFoot  -7.47666 -0.0668368 0.476788
RightToes  -4.65663e-010 0 -3.6325e-017
Spine  0.723186 -0.604323 15.783
Spine1  9.94617 0.471681 -5.59617
HEad  34.0064 -8.0524 -6.92662
LeftShoulder1  7.29449 -9.8783 -47.5497
LeftArm  -13.2243 33.2441 -20.429
LeftForeArm  76.3 -75.9593 -35.6947
LeftHand  -0.244104 0.0205437 5.32207
RightShoulder  5.84839 9.09792 40.2566
RightArm  -2.00005 -16.0564 25.3582
RightForeArm  -11.225 24.822 5.87173
RightHand  -0.592401 -0.789851 -14.9138
LeftUpLeg  -11.4523 4.30194 2.42511
LeftLeg  -4.50872 -15.5059 -6.21221
LeftFoot  2.85116 3.81529 -30.1386
LeftToes  4.18335e-011 1.59304e-011 3.38507e-012
565
root  5.53272 40.5051 -3.81455 -21.9861 -78.8454 29.0693
RightUpLeg  -16.9986 -15.7548 -5.94972
RightLeg  17.1851 -7.94179 -1.52418
RightFoot  -6.79401 -0.0594601 0.336294
RightToes  -4.65663e-010 0 -3.6325e-017
Spine  1.03538 -0.699083 14.7947
Spine1  10.0972 0.371451 -5.34207
HEad  34.4652 -7.81095 -6.50513
LeftShoulder1  7.30106 -9.88846 -47.5566
LeftArm  -13.5245 33.0349 -20.4252
LeftForeArm  76.2026 -75.9083 -35.5243
LeftHand  -0.244104 0.0205437 5.32207
RightShoulder  5.86956 9.11309 40.3625
RightArm  -1.69919 -15.9314 25.4383
RightForeArm  -11.1493 24.3406 5.75815
RightHand  -0.602755 -0.701803 -14.8764
LeftUpLeg  -12.1434 3.63699 1.86745
LeftLeg  -3.10322 -14.4354 -6.1234
LeftFoot  3.20562 3.46265 -26.8275
LeftToes  4.18335e-011 1.59304e-011 3.38507e-012
566
root  5.59268 40.6061 -3.93953 -21.934 -78.6422 28.7401
RightUpLeg  -15.8535 -15.4001 -6.46699
RightLeg  15.6709 -8.66391 -0.52675
RightFoot  -6.09115 -0.0536184 0.270122
RightToes  -4.65663e-010 0 -3.6325e-017
Spine  1.40414 -0.705033 13.8858
Spine1  10.2591 0.422608 -5.26063
HEad  34.7374 -7.56134 -6.01283
LeftShoulder1  7.26566 -9.8907 -47.3143
LeftArm  -13.6681 32.8192 -20.5924
LeftForeArm  76.3519 -75.9596 -35.6838
LeftHand  -0.244104 0.0205437 5.32207
RightShoulder  5.89423 9.15858 40.3888
RightArm  -1.20381 -15.7845 25.6308
RightForeArm  -11.3837 23.8291 5.65592
RightHand  -0.59645 -0.758051 -14.8653
LeftUpLeg  -12.6952 3.46148 1.6378
LeftLeg  -1.20665 -10.9406 -6.48245
LeftFoot  2.42346 2.98521 -24.5042
LeftToes  4.18335e-011 1.59304e-011 3.38507e-012
567
root  5.62828 40.7085 -4.05641 -22.1346 -78.5521 28.6594
RightUpLeg  -14.6371 -14.6319 -6.97102
RightLeg  14.0196 -9.64354 0.404558
RightFoot  -5.38146 -0.047155 0.202975
RightToes  -4.65663e-010 0 -3.6325e-017
Spine  1.6842 -0.688925 12.7329
Spine1  10.3661 0.463239 -5.06797
HEad  34.939 -7.21349 -5.49013
LeftShoulder1  7.23287 -9.89099 -47.0958
LeftArm  -13.6223 32.6958 -20.6593
LeftForeArm  76.7923 -76.1042 -36.1361
LeftHand  -0.244104 0.0205437 5.32207
RightShoulder  5.90006 9.17598 40.3719
RightArm  -0.758379 -15.6481 25.8224
RightForeArm  -11.5312 23.4955 5.59958
RightHand  -0.591348 -0.802816 -14.9305
LeftUpLeg  -13.3728 4.05701 1.42242
LeftLeg  1.71237 -6.34096 -6.62684
LeftFoot  0.445054 2.26852 -21.7336
LeftToes  4.18335e-011 1.59304e-011 3.38507e-012
568
root  5.63354 40.7919 -4.15393 -22.4923 -78.4637 28.7095
RightUpLeg  -13.4758 -13.6816 -7.41697
RightLeg  12.5172 -10.762 1.12743
RightFoot  -4.78148 -0.0365122 0.0727383
RightToes  -4.65663e-010 0 -3.6325e-017
Spine  1.8332 -0.702918 11.3576
Spine1  10.4081 0.397383 -4.69247
HEad  35.2299 -6.70859 -5.02501
LeftShoulder1  7.19947 -9.86732 -46.9582
LeftArm  -13.476 32.6109 -20.593
LeftForeArm  77.0859 -76.1949 -36.4233
LeftHand  -0.244104 0.0205437 5.32207
RightShoulder  5.90491 9.16507 40.4459
RightArm  -0.62444 -15.572 25.9069
RightForeArm  -11.0844 23.4649 5.57466
RightHand  -0.602442 -0.69869 -14.8792
LeftUpLeg  -14.0187 5.74155 0.814571
LeftLeg  5.14985 -3.63108 -5.72324
LeftFoot  -1.68688 1.54144 -18.0143
LeftToes  4.18335e-011 1.59304e-011 3.38507e-012
569
root  5.60648 40.8502 -4.21297 -23.0302 -78.494 28.8697
RightUpLeg  -12.4357 -12.7862 -7.73986
RightLeg  11.3799 -11.6555 1.64336
RightFoot  -4.32833 -0.0224419 -0.103435
RightToes  -4.65663e-010 0 -3.6325e-017
Spine  1.85858 -0.73452 10.1459
Spine1  10.4392 0.330238 -4.4429
HEad  35.6617 -6.00553 -4.66698
LeftShoulder1  7.12413 -9.79085 -46.728
LeftArm  -13.3235 32.5453 -20.5617
LeftForeArm  77.0919 -76.1883 -36.3953
LeftHand  -0.244104 0.0205437 5.32207
RightShoulder  5.93007 9.17673 40.5926
RightArm  -0.607754 -15.6497 25.9497
RightForeArm  -10.6646 23.7333 5.60206
RightHand  -0.616943 -0.550679 -14.7836
LeftUpLeg  -14.0403 6.90433 0.383147
LeftLeg  7.47974 -2.61002 -4.36423
LeftFoot  -2.82423 1.08596 -14.3336
LeftToes  4.18335e-011 1.59304e-011 3.38507e-012
570
root  5.54769 40.8962 -4.22261 -23.7666 -78.776 29.21
RightUpLeg  -11.5053 -12.1326 -7.91028
RightLeg  10.4913 -11.9973 2.06214
RightFoot  -3.94658 -0.00887686 -0.268322
RightToes  -4.65663e-010 0 -3.6325e-017
Spine  1.63732 -0.707111 9.28517
Spine1  10.6076 0.387595 -4.4742
HEad  36.1802 -5.18649 -4.34369
LeftShoulder1  7.02636 -9.6817 -46.4608
LeftArm  -13.2595 32.5235 -20.5744
LeftForeArm  76.9686 -76.1387 -36.2286
LeftHand  -0.244104 0.0205437 5.32207
RightShoulder  5.96141 9.21056 40.7078
RightArm  -0.333905 -15.8136 25.9971
RightForeArm  -11.1515 24.1298 5.71034
RightHand  -0.636877 -0.470616 -15.0168
LeftUpLeg  -13.3604 6.62707 0.5916
LeftLeg  8.18445 -1.5831 -3.41932
LeftFoot  -3.0754 0.851884 -11.5175
LeftToes  4.18335e-011 1.59304e-011 3.38507e-012
571
root  5.46283 40.9361 -4.18681 -24.4006 -79.2243 29.5352
RightUpLeg  -10.7117 -11.6835 -7.95164
RightLeg  9.71075 -11.9509 2.40837
RightFoot  -3.58126 0.00249289 -0.397032
RightToes  -4.65663e-010 0 -3.6325e-017
Spine  1.05888 -0.59559 8.59664
Spine1  11.0094 0.522135 -4.52919
HEad  36.6887 -4.44029 -3.96156
LeftShoulder1  6.9655 -9.58801 -46.385
LeftArm  -13.3812 32.5241 -20.5535
LeftForeArm  76.6514 -76.0303 -35.8827
LeftHand  -0.244104 0.0205437 5.32207
RightShoulder  5.96145 9.19546 40.7606
RightArm  0.108953 -15.8593 26.0199
RightForeArm  -12.0462 24.4198 5.81852
RightHand  -0.665127 -0.422669 -15.5335
LeftUpLeg  -12.3441 5.54953 1.158
LeftLeg  7.70699 0.0562953 -2.89979
LeftFoot  -3.05739 0.720826 -9.68508
LeftToes  4.18335e-011 1.59304e-011 3.38507e-012
